<?xml version="1.0" standalone="no"?>
<!DOCTYPE svg PUBLIC "-//W3C//DTD SVG 20010904//EN"
 "http://www.w3.org/TR/2001/REC-SVG-20010904/DTD/svg10.dtd">
<svg version="1.0" xmlns="http://www.w3.org/2000/svg"
 width="3600.000000pt" height="3600.000000pt" viewBox="0 0 3543.000000 2498.000000"
 preserveAspectRatio="xMidYMid meet">

<g transform="translate(0.000000,2498.000000) scale(0.100000,-0.100000)"
fill="#9AFF00" stroke="none">
<path d="M30505 22806 c-2792 -933 -3842 -1288 -3851 -1302 -7 -11 -380 -685
-828 -1499 -449 -813 -820 -1483 -824 -1487 -10 -10 -410 -132 -787 -239
-1801 -514 -3788 -916 -5240 -1058 -1320 -130 -2252 -74 -2719 164 -56 28
-224 131 -374 229 l-274 179 -27 -29 c-70 -72 -468 -523 -557 -630 -344 -413
-655 -908 -832 -1324 -154 -362 -231 -733 -203 -975 25 -218 93 -371 224 -511
l68 -72 -493 -249 c-271 -137 -2452 -1236 -4845 -2443 -2394 -1206 -4351
-2195 -4350 -2196 2 -2 1114 30 2472 71 1359 41 2508 75 2554 75 l84 0 -329
-219 c-1499 -996 -2753 -2084 -3779 -3278 -126 -147 -3174 -3857 -3190 -3882
-5 -9 3 -7 21 6 52 36 4030 2561 4299 2728 2072 1288 5312 2989 8170 4287
2021 919 4002 1725 6004 2444 190 68 347 122 349 120 2 -3 -444 -817 -992
-1810 -548 -993 -996 -1807 -996 -1809 0 -1 1732 575 3848 1281 l3849 1283
1528 2772 c840 1525 1535 2779 1544 2788 9 9 565 198 1236 419 671 221 1221
403 1221 403 5 7 86 2518 81 2523 -3 3 -191 -56 -416 -131 -226 -75 -415 -135
-419 -133 -5 2 585 1078 1310 2392 725 1315 1318 2391 1318 2393 0 2 -3 3 -7
2 -5 0 -1736 -578 -3848 -1283z m940 -2441 c-724 -1312 -1315 -2388 -1313
-2390 2 -2 371 118 821 267 450 148 820 268 823 266 7 -7 -27 -902 -34 -910
-4 -3 -506 -171 -1117 -373 -610 -201 -1113 -369 -1116 -373 -4 -4 -694 -1253
-1534 -2777 -840 -1523 -1532 -2775 -1538 -2781 -12 -11 -1758 -596 -1763
-591 -2 2 687 1254 1530 2782 843 1529 1532 2781 1531 2783 -1 1 -269 -86
-595 -193 -325 -108 -594 -194 -596 -192 -5 5 580 1073 597 1092 5 6 280 100
612 210 l602 200 1317 2390 1317 2390 883 296 c486 163 884 295 886 294 2 -2
-589 -1077 -1313 -2390z m-5656 -4617 l-3162 -5734 -879 -293 c-484 -161 -881
-291 -883 -289 -2 2 687 1256 1531 2787 844 1531 1533 2785 1531 2788 -3 2
-533 -170 -1179 -383 l-1174 -387 -44 -61 c-189 -263 -494 -738 -635 -991 -83
-148 -205 -393 -205 -410 0 -6 47 -92 104 -190 l105 -180 -27 -12 c-15 -7
-207 -78 -427 -157 -4012 -1445 -8352 -3441 -12215 -5614 -768 -432 -1888
-1094 -2213 -1306 -15 -10 -27 -16 -27 -13 0 10 230 279 395 462 1129 1256
2569 2418 4240 3422 138 83 266 158 285 168 l35 18 -21 -24 c-98 -112 -512
-597 -519 -609 -5 -8 9 -4 36 12 569 330 2180 1145 3339 1691 1734 815 3586
1603 5265 2237 143 54 268 102 277 105 10 4 72 98 139 208 149 245 299 482
431 680 55 82 97 151 95 153 -3 3 -1767 -595 -3921 -1328 l-3915 -1333 -161
-400 c-88 -220 -165 -407 -170 -415 -8 -12 -283 -23 -1902 -72 -1041 -32
-1904 -56 -1918 -55 -16 1 1107 572 3244 1649 1798 907 3270 1647 3272 1645 1
-1 -274 -238 -612 -526 -337 -289 -612 -526 -611 -527 1 -1 1734 562 3851
1252 l3848 1254 322 313 c177 171 426 411 554 531 127 121 230 221 229 222 -1
1 -117 -29 -257 -68 -358 -98 -1141 -294 -1485 -372 -1311 -297 -2360 -463
-3345 -527 -283 -19 -850 -16 -1043 5 l-158 17 -42 -25 c-23 -14 -139 -85
-257 -159 l-214 -134 -59 19 c-62 19 -154 24 -326 19 -90 -2 -107 0 -130 17
-39 28 -47 77 -33 195 42 374 281 860 694 1412 92 123 285 365 291 365 1 0 72
-35 157 -78 351 -177 790 -275 1400 -313 241 -15 1014 -6 1285 15 853 66 1682
183 2705 382 1050 204 2319 511 3445 834 170 49 310 88 312 87 1 -2 -43 -41
-100 -88 -583 -482 -1312 -1155 -1977 -1825 -162 -163 -288 -295 -280 -292 8
2 434 141 945 307 l930 303 1314 2384 1315 2384 880 293 c485 162 882 293 884
292 2 -2 -1420 -2583 -3159 -5737z m-9534 -1456 l189 -7 -504 -164 c-278 -91
-512 -167 -520 -169 -8 -2 115 77 274 176 276 173 291 181 330 176 23 -3 126
-9 231 -12z m-998 -319 c51 -20 90 -39 88 -43 -5 -8 -124 -45 -129 -39 -1 2
-22 33 -46 68 -32 48 -38 62 -24 57 10 -4 60 -23 111 -43z m7067 -315 c-9 -18
-150 -274 -312 -568 -162 -294 -298 -541 -302 -548 -4 -9 -34 32 -83 117 -43
71 -77 135 -77 141 0 27 279 480 428 695 l70 99 138 47 c77 26 142 48 147 48
4 1 0 -14 -9 -31z"/>
</g>
</svg>
